<mxfile host="app.diagrams.net" modified="2024-05-13T19:11:51.452Z" agent="Mozilla/5.0 (Windows NT 10.0; Win64; x64) AppleWebKit/537.36 (KHTML, like Gecko) Chrome/124.0.0.0 Safari/537.36" etag="B6u7htNs8XKKyWUoyPhn" version="24.4.0" type="device">
  <diagram name="UC" id="OTLw87CRdh3D2ib7LzIk">
    <mxGraphModel dx="2585" dy="1162" grid="1" gridSize="10" guides="1" tooltips="1" connect="1" arrows="1" fold="1" page="1" pageScale="1" pageWidth="850" pageHeight="1100" background="#FFFFFF" math="0" shadow="0">
      <root>
        <mxCell id="0" />
        <mxCell id="1" parent="0" />
        <mxCell id="ANZ1kcfsG3lYuSEbbKu_-1" value="Khách hàng" style="shape=umlActor;verticalLabelPosition=bottom;verticalAlign=top;html=1;outlineConnect=0;" vertex="1" parent="1">
          <mxGeometry x="950" y="290" width="30" height="60" as="geometry" />
        </mxCell>
        <mxCell id="ANZ1kcfsG3lYuSEbbKu_-2" value="Quản trị viên" style="shape=umlActor;verticalLabelPosition=bottom;verticalAlign=top;html=1;outlineConnect=0;" vertex="1" parent="1">
          <mxGeometry x="-210" y="490" width="30" height="60" as="geometry" />
        </mxCell>
        <mxCell id="ANZ1kcfsG3lYuSEbbKu_-5" value="Người dùng" style="shape=umlActor;verticalLabelPosition=bottom;verticalAlign=top;html=1;outlineConnect=0;" vertex="1" parent="1">
          <mxGeometry x="310" y="30" width="30" height="60" as="geometry" />
        </mxCell>
        <mxCell id="ANZ1kcfsG3lYuSEbbKu_-6" value="" style="endArrow=block;endSize=16;endFill=0;html=1;rounded=0;exitX=1;exitY=0.3333333333333333;exitDx=0;exitDy=0;exitPerimeter=0;entryX=0;entryY=0.3333333333333333;entryDx=0;entryDy=0;entryPerimeter=0;" edge="1" parent="1" source="ANZ1kcfsG3lYuSEbbKu_-2" target="ANZ1kcfsG3lYuSEbbKu_-5">
          <mxGeometry width="160" relative="1" as="geometry">
            <mxPoint x="-20" y="330" as="sourcePoint" />
            <mxPoint x="140" y="330" as="targetPoint" />
            <Array as="points">
              <mxPoint x="-180" y="50" />
            </Array>
          </mxGeometry>
        </mxCell>
        <mxCell id="ANZ1kcfsG3lYuSEbbKu_-8" value="" style="endArrow=block;endSize=16;endFill=0;html=1;rounded=0;exitX=0;exitY=0.3333333333333333;exitDx=0;exitDy=0;exitPerimeter=0;entryX=1;entryY=0.333;entryDx=0;entryDy=0;entryPerimeter=0;" edge="1" parent="1" source="ANZ1kcfsG3lYuSEbbKu_-1" target="ANZ1kcfsG3lYuSEbbKu_-5">
          <mxGeometry width="160" relative="1" as="geometry">
            <mxPoint x="-120" y="340" as="sourcePoint" />
            <mxPoint x="320" y="60" as="targetPoint" />
            <Array as="points">
              <mxPoint x="950" y="50" />
            </Array>
          </mxGeometry>
        </mxCell>
        <mxCell id="ANZ1kcfsG3lYuSEbbKu_-10" value="Đăng nhập" style="ellipse;whiteSpace=wrap;html=1;" vertex="1" parent="1">
          <mxGeometry x="310" y="130" width="140" height="70" as="geometry" />
        </mxCell>
        <mxCell id="ANZ1kcfsG3lYuSEbbKu_-11" value="Đăng xuất" style="ellipse;whiteSpace=wrap;html=1;" vertex="1" parent="1">
          <mxGeometry x="530" y="130" width="140" height="70" as="geometry" />
        </mxCell>
        <mxCell id="ANZ1kcfsG3lYuSEbbKu_-14" value="&amp;lt;&amp;lt;extend&amp;gt;&amp;gt;" style="html=1;verticalAlign=bottom;labelBackgroundColor=none;endArrow=open;endFill=0;dashed=1;rounded=0;exitX=0;exitY=0.5;exitDx=0;exitDy=0;entryX=1;entryY=0.5;entryDx=0;entryDy=0;" edge="1" parent="1" source="ANZ1kcfsG3lYuSEbbKu_-11" target="ANZ1kcfsG3lYuSEbbKu_-10">
          <mxGeometry width="160" relative="1" as="geometry">
            <mxPoint x="470" y="120" as="sourcePoint" />
            <mxPoint x="630" y="120" as="targetPoint" />
          </mxGeometry>
        </mxCell>
        <mxCell id="ANZ1kcfsG3lYuSEbbKu_-15" value="" style="html=1;verticalAlign=bottom;labelBackgroundColor=none;endArrow=block;endFill=1;rounded=0;exitX=1;exitY=1;exitDx=0;exitDy=0;exitPerimeter=0;entryX=0.327;entryY=0.059;entryDx=0;entryDy=0;entryPerimeter=0;" edge="1" parent="1" source="ANZ1kcfsG3lYuSEbbKu_-5" target="ANZ1kcfsG3lYuSEbbKu_-10">
          <mxGeometry width="160" relative="1" as="geometry">
            <mxPoint x="390" y="80" as="sourcePoint" />
            <mxPoint x="550" y="80" as="targetPoint" />
          </mxGeometry>
        </mxCell>
        <mxCell id="ANZ1kcfsG3lYuSEbbKu_-17" value="Đăng ký" style="ellipse;whiteSpace=wrap;html=1;" vertex="1" parent="1">
          <mxGeometry x="730" y="140" width="140" height="70" as="geometry" />
        </mxCell>
        <mxCell id="ANZ1kcfsG3lYuSEbbKu_-18" value="" style="html=1;verticalAlign=bottom;labelBackgroundColor=none;endArrow=block;endFill=1;rounded=0;exitX=0;exitY=0.3333333333333333;exitDx=0;exitDy=0;exitPerimeter=0;entryX=1;entryY=0.5;entryDx=0;entryDy=0;" edge="1" parent="1" source="ANZ1kcfsG3lYuSEbbKu_-1" target="ANZ1kcfsG3lYuSEbbKu_-17">
          <mxGeometry width="160" relative="1" as="geometry">
            <mxPoint x="350" y="100" as="sourcePoint" />
            <mxPoint x="366" y="144" as="targetPoint" />
          </mxGeometry>
        </mxCell>
        <mxCell id="ANZ1kcfsG3lYuSEbbKu_-19" value="Tìm kiếm phim" style="ellipse;whiteSpace=wrap;html=1;" vertex="1" parent="1">
          <mxGeometry x="720" y="230" width="140" height="70" as="geometry" />
        </mxCell>
        <mxCell id="ANZ1kcfsG3lYuSEbbKu_-20" value="Xem lịch chiếu" style="ellipse;whiteSpace=wrap;html=1;" vertex="1" parent="1">
          <mxGeometry x="690" y="320" width="140" height="70" as="geometry" />
        </mxCell>
        <mxCell id="ANZ1kcfsG3lYuSEbbKu_-21" value="Đặt vé" style="ellipse;whiteSpace=wrap;html=1;" vertex="1" parent="1">
          <mxGeometry x="690" y="420" width="140" height="70" as="geometry" />
        </mxCell>
        <mxCell id="ANZ1kcfsG3lYuSEbbKu_-22" value="Đặt món ăn" style="ellipse;whiteSpace=wrap;html=1;" vertex="1" parent="1">
          <mxGeometry x="480" y="390" width="140" height="70" as="geometry" />
        </mxCell>
        <mxCell id="ANZ1kcfsG3lYuSEbbKu_-23" value="Xem thông tin tài khoản&amp;nbsp;" style="ellipse;whiteSpace=wrap;html=1;" vertex="1" parent="1">
          <mxGeometry x="710" y="530" width="140" height="70" as="geometry" />
        </mxCell>
        <mxCell id="ANZ1kcfsG3lYuSEbbKu_-24" value="" style="html=1;verticalAlign=bottom;labelBackgroundColor=none;endArrow=block;endFill=1;rounded=0;entryX=1;entryY=0.5;entryDx=0;entryDy=0;exitX=0;exitY=0.3333333333333333;exitDx=0;exitDy=0;exitPerimeter=0;" edge="1" parent="1" source="ANZ1kcfsG3lYuSEbbKu_-1" target="ANZ1kcfsG3lYuSEbbKu_-19">
          <mxGeometry width="160" relative="1" as="geometry">
            <mxPoint x="930" y="350" as="sourcePoint" />
            <mxPoint x="830" y="235" as="targetPoint" />
          </mxGeometry>
        </mxCell>
        <mxCell id="ANZ1kcfsG3lYuSEbbKu_-25" value="" style="html=1;verticalAlign=bottom;labelBackgroundColor=none;endArrow=block;endFill=1;rounded=0;entryX=1;entryY=0.5;entryDx=0;entryDy=0;exitX=0;exitY=0.3333333333333333;exitDx=0;exitDy=0;exitPerimeter=0;" edge="1" parent="1" source="ANZ1kcfsG3lYuSEbbKu_-1" target="ANZ1kcfsG3lYuSEbbKu_-20">
          <mxGeometry width="160" relative="1" as="geometry">
            <mxPoint x="870" y="400" as="sourcePoint" />
            <mxPoint x="1030" y="400" as="targetPoint" />
          </mxGeometry>
        </mxCell>
        <mxCell id="ANZ1kcfsG3lYuSEbbKu_-26" value="" style="html=1;verticalAlign=bottom;labelBackgroundColor=none;endArrow=block;endFill=1;rounded=0;entryX=0.981;entryY=0.355;entryDx=0;entryDy=0;exitX=0;exitY=0.3333333333333333;exitDx=0;exitDy=0;exitPerimeter=0;entryPerimeter=0;" edge="1" parent="1" source="ANZ1kcfsG3lYuSEbbKu_-1" target="ANZ1kcfsG3lYuSEbbKu_-21">
          <mxGeometry width="160" relative="1" as="geometry">
            <mxPoint x="960" y="400" as="sourcePoint" />
            <mxPoint x="840" y="245" as="targetPoint" />
          </mxGeometry>
        </mxCell>
        <mxCell id="ANZ1kcfsG3lYuSEbbKu_-27" value="" style="html=1;verticalAlign=bottom;labelBackgroundColor=none;endArrow=block;endFill=1;rounded=0;exitX=0;exitY=0.3333333333333333;exitDx=0;exitDy=0;exitPerimeter=0;entryX=1;entryY=0;entryDx=0;entryDy=0;" edge="1" parent="1" source="ANZ1kcfsG3lYuSEbbKu_-1" target="ANZ1kcfsG3lYuSEbbKu_-23">
          <mxGeometry width="160" relative="1" as="geometry">
            <mxPoint x="980" y="340" as="sourcePoint" />
            <mxPoint x="850" y="255" as="targetPoint" />
          </mxGeometry>
        </mxCell>
        <mxCell id="ANZ1kcfsG3lYuSEbbKu_-28" value="&amp;lt;&amp;lt;extend&amp;gt;&amp;gt;" style="html=1;verticalAlign=bottom;labelBackgroundColor=none;endArrow=open;endFill=0;dashed=1;rounded=0;exitX=1;exitY=0.5;exitDx=0;exitDy=0;entryX=0;entryY=0.5;entryDx=0;entryDy=0;" edge="1" parent="1" source="ANZ1kcfsG3lYuSEbbKu_-22" target="ANZ1kcfsG3lYuSEbbKu_-21">
          <mxGeometry width="160" relative="1" as="geometry">
            <mxPoint x="540" y="175" as="sourcePoint" />
            <mxPoint x="460" y="175" as="targetPoint" />
          </mxGeometry>
        </mxCell>
        <mxCell id="ANZ1kcfsG3lYuSEbbKu_-29" value="&lt;p class=&quot;MsoNormal&quot;&gt;&lt;span style=&quot;mso-spacerun:&#39;yes&#39;;font-family:&#39;Times New Roman&#39;;font-size:13,0000pt;&quot;&gt;Quản lý thông tin phim&lt;/span&gt;&lt;/p&gt;" style="ellipse;whiteSpace=wrap;html=1;" vertex="1" parent="1">
          <mxGeometry x="-70" y="180" width="140" height="70" as="geometry" />
        </mxCell>
        <mxCell id="ANZ1kcfsG3lYuSEbbKu_-30" value="&lt;p class=&quot;MsoNormal&quot;&gt;&lt;span style=&quot;mso-spacerun:&#39;yes&#39;;font-family:&#39;Times New Roman&#39;;font-size:13,0000pt;&quot;&gt;Quản lý lịch chiếu&lt;/span&gt;&lt;/p&gt;" style="ellipse;whiteSpace=wrap;html=1;" vertex="1" parent="1">
          <mxGeometry x="-70" y="300" width="140" height="70" as="geometry" />
        </mxCell>
        <mxCell id="ANZ1kcfsG3lYuSEbbKu_-31" value="&lt;p class=&quot;MsoNormal&quot;&gt;&lt;span style=&quot;mso-spacerun:&#39;yes&#39;;font-family:&#39;Times New Roman&#39;;font-size:13,0000pt;&quot;&gt;Quản lý người dùng&lt;/span&gt;&lt;/p&gt;" style="ellipse;whiteSpace=wrap;html=1;" vertex="1" parent="1">
          <mxGeometry x="-70" y="400" width="140" height="70" as="geometry" />
        </mxCell>
        <mxCell id="ANZ1kcfsG3lYuSEbbKu_-32" value="&lt;p class=&quot;MsoNormal&quot;&gt;&lt;span style=&quot;mso-spacerun:&#39;yes&#39;;font-family:&#39;Times New Roman&#39;;font-size:13,0000pt;&quot;&gt;Hỗ trợ khách hàng&lt;/span&gt;&lt;/p&gt;" style="ellipse;whiteSpace=wrap;html=1;" vertex="1" parent="1">
          <mxGeometry x="-70" y="490" width="140" height="70" as="geometry" />
        </mxCell>
        <mxCell id="ANZ1kcfsG3lYuSEbbKu_-33" value="&lt;p class=&quot;MsoNormal&quot;&gt;&lt;span style=&quot;mso-spacerun:&#39;yes&#39;;font-family:&#39;Times New Roman&#39;;font-size:13,0000pt;&quot;&gt;Quản lý chi nhánh rạp phim&lt;/span&gt;&lt;/p&gt;" style="ellipse;whiteSpace=wrap;html=1;" vertex="1" parent="1">
          <mxGeometry x="-80" y="580" width="140" height="70" as="geometry" />
        </mxCell>
        <mxCell id="ANZ1kcfsG3lYuSEbbKu_-34" value="&lt;p class=&quot;MsoNormal&quot;&gt;&lt;span style=&quot;mso-spacerun:&#39;yes&#39;;font-family:&#39;Times New Roman&#39;;font-size:13,0000pt;&quot;&gt;Báo cáo doanh thu&lt;/span&gt;&lt;/p&gt;" style="ellipse;whiteSpace=wrap;html=1;" vertex="1" parent="1">
          <mxGeometry x="-80" y="670" width="140" height="70" as="geometry" />
        </mxCell>
        <mxCell id="ANZ1kcfsG3lYuSEbbKu_-35" value="&lt;p class=&quot;MsoNormal&quot;&gt;&lt;span style=&quot;mso-spacerun:&#39;yes&#39;;font-family:&#39;Times New Roman&#39;;font-size:13,0000pt;&quot;&gt;Quản lý món ăn&lt;/span&gt;&lt;/p&gt;" style="ellipse;whiteSpace=wrap;html=1;" vertex="1" parent="1">
          <mxGeometry x="-80" y="760" width="140" height="70" as="geometry" />
        </mxCell>
        <mxCell id="ANZ1kcfsG3lYuSEbbKu_-36" value="Xem lịch sử đặt&amp;nbsp;" style="ellipse;whiteSpace=wrap;html=1;" vertex="1" parent="1">
          <mxGeometry x="490" y="500" width="140" height="70" as="geometry" />
        </mxCell>
        <mxCell id="ANZ1kcfsG3lYuSEbbKu_-37" value="&amp;lt;&amp;lt;include&amp;gt;&amp;gt;" style="html=1;verticalAlign=bottom;labelBackgroundColor=none;endArrow=open;endFill=0;dashed=1;rounded=0;exitX=0.031;exitY=0.759;exitDx=0;exitDy=0;exitPerimeter=0;entryX=0.947;entryY=0.268;entryDx=0;entryDy=0;entryPerimeter=0;" edge="1" parent="1" source="ANZ1kcfsG3lYuSEbbKu_-21" target="ANZ1kcfsG3lYuSEbbKu_-36">
          <mxGeometry width="160" relative="1" as="geometry">
            <mxPoint x="550" y="610" as="sourcePoint" />
            <mxPoint x="710" y="610" as="targetPoint" />
          </mxGeometry>
        </mxCell>
        <mxCell id="ANZ1kcfsG3lYuSEbbKu_-38" value="Quản lý giá vé" style="ellipse;whiteSpace=wrap;html=1;" vertex="1" parent="1">
          <mxGeometry x="-80" y="850" width="140" height="70" as="geometry" />
        </mxCell>
        <mxCell id="ANZ1kcfsG3lYuSEbbKu_-39" value="Quản lý lịch sử đặt vé" style="ellipse;whiteSpace=wrap;html=1;" vertex="1" parent="1">
          <mxGeometry x="-80" y="940" width="140" height="70" as="geometry" />
        </mxCell>
        <mxCell id="ANZ1kcfsG3lYuSEbbKu_-40" value="&lt;p class=&quot;MsoNormal&quot;&gt;&lt;span style=&quot;mso-spacerun:&#39;yes&#39;;font-family:&#39;Times New Roman&#39;;font-size:13,0000pt;&quot;&gt;Xóa thông tin phim&lt;/span&gt;&lt;/p&gt;" style="ellipse;whiteSpace=wrap;html=1;" vertex="1" parent="1">
          <mxGeometry x="120" y="160" width="110" height="40" as="geometry" />
        </mxCell>
        <mxCell id="ANZ1kcfsG3lYuSEbbKu_-41" value="&lt;p class=&quot;MsoNormal&quot;&gt;&lt;span style=&quot;mso-spacerun:&#39;yes&#39;;font-family:&#39;Times New Roman&#39;;font-size:13,0000pt;&quot;&gt;Thêm thông tin phim&lt;/span&gt;&lt;/p&gt;" style="ellipse;whiteSpace=wrap;html=1;" vertex="1" parent="1">
          <mxGeometry x="60" y="100" width="130" height="40" as="geometry" />
        </mxCell>
        <mxCell id="ANZ1kcfsG3lYuSEbbKu_-42" value="&lt;p class=&quot;MsoNormal&quot;&gt;&lt;span style=&quot;mso-spacerun:&#39;yes&#39;;font-family:&#39;Times New Roman&#39;;font-size:13,0000pt;&quot;&gt;Sửa thông tin phim&lt;/span&gt;&lt;/p&gt;" style="ellipse;whiteSpace=wrap;html=1;" vertex="1" parent="1">
          <mxGeometry x="140" y="220" width="110" height="30" as="geometry" />
        </mxCell>
        <mxCell id="ANZ1kcfsG3lYuSEbbKu_-43" value="&amp;lt;&amp;lt;extend&amp;gt;&amp;gt;" style="html=1;verticalAlign=bottom;labelBackgroundColor=none;endArrow=open;endFill=0;dashed=1;rounded=0;exitX=0;exitY=1;exitDx=0;exitDy=0;entryX=0.786;entryY=0.052;entryDx=0;entryDy=0;entryPerimeter=0;" edge="1" parent="1" source="ANZ1kcfsG3lYuSEbbKu_-41" target="ANZ1kcfsG3lYuSEbbKu_-29">
          <mxGeometry width="160" relative="1" as="geometry">
            <mxPoint x="-100" y="150" as="sourcePoint" />
            <mxPoint x="60" y="150" as="targetPoint" />
          </mxGeometry>
        </mxCell>
        <mxCell id="ANZ1kcfsG3lYuSEbbKu_-44" value="&amp;lt;&amp;lt;extend&amp;gt;&amp;gt;" style="html=1;verticalAlign=bottom;labelBackgroundColor=none;endArrow=open;endFill=0;dashed=1;rounded=0;exitX=0;exitY=0.5;exitDx=0;exitDy=0;entryX=0.926;entryY=0.275;entryDx=0;entryDy=0;entryPerimeter=0;" edge="1" parent="1" source="ANZ1kcfsG3lYuSEbbKu_-40" target="ANZ1kcfsG3lYuSEbbKu_-29">
          <mxGeometry width="160" relative="1" as="geometry">
            <mxPoint x="108.96000000000001" y="150.36" as="sourcePoint" />
            <mxPoint x="69.96000000000001" y="200.36" as="targetPoint" />
          </mxGeometry>
        </mxCell>
        <mxCell id="ANZ1kcfsG3lYuSEbbKu_-45" value="&amp;lt;&amp;lt;extend&amp;gt;&amp;gt;" style="html=1;verticalAlign=bottom;labelBackgroundColor=none;endArrow=open;endFill=0;dashed=1;rounded=0;exitX=0.045;exitY=0.333;exitDx=0;exitDy=0;entryX=1;entryY=0.5;entryDx=0;entryDy=0;exitPerimeter=0;" edge="1" parent="1" source="ANZ1kcfsG3lYuSEbbKu_-42" target="ANZ1kcfsG3lYuSEbbKu_-29">
          <mxGeometry width="160" relative="1" as="geometry">
            <mxPoint x="140" y="210" as="sourcePoint" />
            <mxPoint x="80" y="229" as="targetPoint" />
          </mxGeometry>
        </mxCell>
        <mxCell id="ANZ1kcfsG3lYuSEbbKu_-46" value="" style="html=1;verticalAlign=bottom;labelBackgroundColor=none;endArrow=block;endFill=1;rounded=0;exitX=1;exitY=0.3333333333333333;exitDx=0;exitDy=0;exitPerimeter=0;entryX=0;entryY=0.5;entryDx=0;entryDy=0;" edge="1" parent="1" source="ANZ1kcfsG3lYuSEbbKu_-2" target="ANZ1kcfsG3lYuSEbbKu_-29">
          <mxGeometry width="160" relative="1" as="geometry">
            <mxPoint x="-100" y="265.87" as="sourcePoint" />
            <mxPoint x="-84" y="309.87" as="targetPoint" />
          </mxGeometry>
        </mxCell>
        <mxCell id="ANZ1kcfsG3lYuSEbbKu_-47" value="&lt;p class=&quot;MsoNormal&quot;&gt;&lt;span style=&quot;mso-spacerun:&#39;yes&#39;;font-family:&#39;Times New Roman&#39;;font-size:13,0000pt;&quot;&gt;Thêm lịch chiếu phim&lt;/span&gt;&lt;/p&gt;" style="ellipse;whiteSpace=wrap;html=1;" vertex="1" parent="1">
          <mxGeometry x="110" y="270" width="110" height="30" as="geometry" />
        </mxCell>
        <mxCell id="ANZ1kcfsG3lYuSEbbKu_-48" value="&lt;p class=&quot;MsoNormal&quot;&gt;&lt;span style=&quot;mso-spacerun:&#39;yes&#39;;font-family:&#39;Times New Roman&#39;;font-size:13,0000pt;&quot;&gt;xóa lịch chiếu phim&lt;/span&gt;&lt;/p&gt;" style="ellipse;whiteSpace=wrap;html=1;" vertex="1" parent="1">
          <mxGeometry x="122.5" y="310" width="105" height="30" as="geometry" />
        </mxCell>
        <mxCell id="ANZ1kcfsG3lYuSEbbKu_-49" value="&lt;p class=&quot;MsoNormal&quot;&gt;&lt;span style=&quot;mso-spacerun:&#39;yes&#39;;font-family:&#39;Times New Roman&#39;;font-size:13,0000pt;&quot;&gt;Sửa lịch chiếu phim&lt;/span&gt;&lt;/p&gt;" style="ellipse;whiteSpace=wrap;html=1;" vertex="1" parent="1">
          <mxGeometry x="145" y="360" width="105" height="30" as="geometry" />
        </mxCell>
        <mxCell id="ANZ1kcfsG3lYuSEbbKu_-50" value="&amp;lt;&amp;lt;extend&amp;gt;&amp;gt;" style="html=1;verticalAlign=bottom;labelBackgroundColor=none;endArrow=open;endFill=0;dashed=1;rounded=0;exitX=0;exitY=0.5;exitDx=0;exitDy=0;entryX=0.804;entryY=0.119;entryDx=0;entryDy=0;entryPerimeter=0;" edge="1" parent="1" source="ANZ1kcfsG3lYuSEbbKu_-47" target="ANZ1kcfsG3lYuSEbbKu_-30">
          <mxGeometry width="160" relative="1" as="geometry">
            <mxPoint x="110.05" y="272.51" as="sourcePoint" />
            <mxPoint x="35.05" y="257.51" as="targetPoint" />
          </mxGeometry>
        </mxCell>
        <mxCell id="ANZ1kcfsG3lYuSEbbKu_-51" value="&amp;lt;&amp;lt;extend&amp;gt;&amp;gt;" style="html=1;verticalAlign=bottom;labelBackgroundColor=none;endArrow=open;endFill=0;dashed=1;rounded=0;exitX=0;exitY=0.5;exitDx=0;exitDy=0;entryX=0.958;entryY=0.309;entryDx=0;entryDy=0;entryPerimeter=0;" edge="1" parent="1" source="ANZ1kcfsG3lYuSEbbKu_-48" target="ANZ1kcfsG3lYuSEbbKu_-30">
          <mxGeometry width="160" relative="1" as="geometry">
            <mxPoint x="127.44" y="305.83" as="sourcePoint" />
            <mxPoint x="60.44" y="333.83" as="targetPoint" />
          </mxGeometry>
        </mxCell>
        <mxCell id="ANZ1kcfsG3lYuSEbbKu_-52" value="&amp;lt;&amp;lt;extend&amp;gt;&amp;gt;" style="html=1;verticalAlign=bottom;labelBackgroundColor=none;endArrow=open;endFill=0;dashed=1;rounded=0;exitX=0;exitY=0;exitDx=0;exitDy=0;entryX=0.969;entryY=0.688;entryDx=0;entryDy=0;entryPerimeter=0;" edge="1" parent="1" source="ANZ1kcfsG3lYuSEbbKu_-49" target="ANZ1kcfsG3lYuSEbbKu_-30">
          <mxGeometry width="160" relative="1" as="geometry">
            <mxPoint x="120.5" y="340" as="sourcePoint" />
            <mxPoint x="90" y="350" as="targetPoint" />
          </mxGeometry>
        </mxCell>
        <mxCell id="ANZ1kcfsG3lYuSEbbKu_-53" value="" style="html=1;verticalAlign=bottom;labelBackgroundColor=none;endArrow=block;endFill=1;rounded=0;exitX=1;exitY=0.3333333333333333;exitDx=0;exitDy=0;exitPerimeter=0;entryX=0;entryY=0.5;entryDx=0;entryDy=0;" edge="1" parent="1" source="ANZ1kcfsG3lYuSEbbKu_-2" target="ANZ1kcfsG3lYuSEbbKu_-30">
          <mxGeometry width="160" relative="1" as="geometry">
            <mxPoint x="-130" y="385" as="sourcePoint" />
            <mxPoint x="-70" y="270" as="targetPoint" />
          </mxGeometry>
        </mxCell>
        <mxCell id="ANZ1kcfsG3lYuSEbbKu_-54" value="" style="html=1;verticalAlign=bottom;labelBackgroundColor=none;endArrow=block;endFill=1;rounded=0;exitX=1;exitY=0.3333333333333333;exitDx=0;exitDy=0;exitPerimeter=0;entryX=0.019;entryY=0.349;entryDx=0;entryDy=0;entryPerimeter=0;" edge="1" parent="1" source="ANZ1kcfsG3lYuSEbbKu_-2" target="ANZ1kcfsG3lYuSEbbKu_-31">
          <mxGeometry width="160" relative="1" as="geometry">
            <mxPoint x="-140" y="365" as="sourcePoint" />
            <mxPoint x="-80" y="375" as="targetPoint" />
          </mxGeometry>
        </mxCell>
        <mxCell id="ANZ1kcfsG3lYuSEbbKu_-57" value="&lt;p class=&quot;MsoNormal&quot;&gt;&lt;span style=&quot;mso-spacerun:&#39;yes&#39;;font-family:&#39;Times New Roman&#39;;font-size:13,0000pt;&quot;&gt;Thêm tài khoản&lt;/span&gt;&lt;/p&gt;" style="ellipse;whiteSpace=wrap;html=1;" vertex="1" parent="1">
          <mxGeometry x="142.5" y="400" width="105" height="30" as="geometry" />
        </mxCell>
        <mxCell id="ANZ1kcfsG3lYuSEbbKu_-58" value="&lt;p class=&quot;MsoNormal&quot;&gt;&lt;span style=&quot;font-family: &amp;quot;Times New Roman&amp;quot;; background-color: initial;&quot;&gt;Sửa đổi thông tin&lt;/span&gt;&lt;/p&gt;" style="ellipse;whiteSpace=wrap;html=1;" vertex="1" parent="1">
          <mxGeometry x="130" y="440" width="105" height="30" as="geometry" />
        </mxCell>
        <mxCell id="ANZ1kcfsG3lYuSEbbKu_-59" value="&lt;p class=&quot;MsoNormal&quot;&gt;&lt;span style=&quot;mso-spacerun:&#39;yes&#39;;font-family:&#39;Times New Roman&#39;;font-size:13,0000pt;&quot;&gt;Xóa tài khoản&lt;/span&gt;&lt;/p&gt;" style="ellipse;whiteSpace=wrap;html=1;" vertex="1" parent="1">
          <mxGeometry x="140" y="480" width="105" height="30" as="geometry" />
        </mxCell>
        <mxCell id="ANZ1kcfsG3lYuSEbbKu_-60" style="edgeStyle=orthogonalEdgeStyle;rounded=0;orthogonalLoop=1;jettySize=auto;html=1;exitX=0.5;exitY=1;exitDx=0;exitDy=0;" edge="1" parent="1" source="ANZ1kcfsG3lYuSEbbKu_-57" target="ANZ1kcfsG3lYuSEbbKu_-57">
          <mxGeometry relative="1" as="geometry" />
        </mxCell>
        <mxCell id="ANZ1kcfsG3lYuSEbbKu_-61" value="&amp;lt;&amp;lt;extend&amp;gt;&amp;gt;" style="html=1;verticalAlign=bottom;labelBackgroundColor=none;endArrow=open;endFill=0;dashed=1;rounded=0;exitX=0;exitY=0.5;exitDx=0;exitDy=0;entryX=1;entryY=0;entryDx=0;entryDy=0;" edge="1" parent="1" source="ANZ1kcfsG3lYuSEbbKu_-57" target="ANZ1kcfsG3lYuSEbbKu_-31">
          <mxGeometry width="160" relative="1" as="geometry">
            <mxPoint x="165" y="374" as="sourcePoint" />
            <mxPoint x="80" y="360" as="targetPoint" />
          </mxGeometry>
        </mxCell>
        <mxCell id="ANZ1kcfsG3lYuSEbbKu_-62" value="&amp;lt;&amp;lt;extend&amp;gt;&amp;gt;" style="html=1;verticalAlign=bottom;labelBackgroundColor=none;endArrow=open;endFill=0;dashed=1;rounded=0;exitX=0;exitY=0.5;exitDx=0;exitDy=0;entryX=1;entryY=0.5;entryDx=0;entryDy=0;" edge="1" parent="1" source="ANZ1kcfsG3lYuSEbbKu_-58" target="ANZ1kcfsG3lYuSEbbKu_-31">
          <mxGeometry width="160" relative="1" as="geometry">
            <mxPoint x="145.5" y="434.75" as="sourcePoint" />
            <mxPoint x="51.5" y="429.75" as="targetPoint" />
          </mxGeometry>
        </mxCell>
        <mxCell id="ANZ1kcfsG3lYuSEbbKu_-63" value="&amp;lt;&amp;lt;extend&amp;gt;&amp;gt;" style="html=1;verticalAlign=bottom;labelBackgroundColor=none;endArrow=open;endFill=0;dashed=1;rounded=0;exitX=0;exitY=0.5;exitDx=0;exitDy=0;entryX=1;entryY=1;entryDx=0;entryDy=0;" edge="1" parent="1" source="ANZ1kcfsG3lYuSEbbKu_-59" target="ANZ1kcfsG3lYuSEbbKu_-31">
          <mxGeometry width="160" relative="1" as="geometry">
            <mxPoint x="130" y="485" as="sourcePoint" />
            <mxPoint x="36" y="480" as="targetPoint" />
          </mxGeometry>
        </mxCell>
        <mxCell id="ANZ1kcfsG3lYuSEbbKu_-64" value="" style="html=1;verticalAlign=bottom;labelBackgroundColor=none;endArrow=block;endFill=1;rounded=0;exitX=1;exitY=0.3333333333333333;exitDx=0;exitDy=0;exitPerimeter=0;entryX=0;entryY=0.5;entryDx=0;entryDy=0;" edge="1" parent="1" source="ANZ1kcfsG3lYuSEbbKu_-2" target="ANZ1kcfsG3lYuSEbbKu_-32">
          <mxGeometry width="160" relative="1" as="geometry">
            <mxPoint x="-150" y="440" as="sourcePoint" />
            <mxPoint x="-87" y="534" as="targetPoint" />
          </mxGeometry>
        </mxCell>
        <mxCell id="ANZ1kcfsG3lYuSEbbKu_-65" value="" style="html=1;verticalAlign=bottom;labelBackgroundColor=none;endArrow=block;endFill=1;rounded=0;exitX=1;exitY=0.3333333333333333;exitDx=0;exitDy=0;exitPerimeter=0;entryX=0;entryY=0.5;entryDx=0;entryDy=0;" edge="1" parent="1" source="ANZ1kcfsG3lYuSEbbKu_-2" target="ANZ1kcfsG3lYuSEbbKu_-34">
          <mxGeometry width="160" relative="1" as="geometry">
            <mxPoint x="-180" y="557.5" as="sourcePoint" />
            <mxPoint x="-70" y="572.5" as="targetPoint" />
          </mxGeometry>
        </mxCell>
        <mxCell id="ANZ1kcfsG3lYuSEbbKu_-66" value="" style="html=1;verticalAlign=bottom;labelBackgroundColor=none;endArrow=block;endFill=1;rounded=0;exitX=1;exitY=0.3333333333333333;exitDx=0;exitDy=0;exitPerimeter=0;entryX=0;entryY=0.5;entryDx=0;entryDy=0;" edge="1" parent="1" source="ANZ1kcfsG3lYuSEbbKu_-2" target="ANZ1kcfsG3lYuSEbbKu_-33">
          <mxGeometry width="160" relative="1" as="geometry">
            <mxPoint x="-180" y="535" as="sourcePoint" />
            <mxPoint x="-70" y="550" as="targetPoint" />
          </mxGeometry>
        </mxCell>
        <mxCell id="ANZ1kcfsG3lYuSEbbKu_-67" value="&lt;p class=&quot;MsoNormal&quot;&gt;&lt;span style=&quot;mso-spacerun:&#39;yes&#39;;font-family:&#39;Times New Roman&#39;;font-size:13,0000pt;&quot;&gt;Thêm rạp phim&lt;/span&gt;&lt;/p&gt;" style="ellipse;whiteSpace=wrap;html=1;" vertex="1" parent="1">
          <mxGeometry x="125" y="550" width="105" height="30" as="geometry" />
        </mxCell>
        <mxCell id="ANZ1kcfsG3lYuSEbbKu_-68" value="&lt;p class=&quot;MsoNormal&quot;&gt;&lt;span style=&quot;font-family: &amp;quot;Times New Roman&amp;quot;;&quot;&gt;Xóa rạp phim&lt;/span&gt;&lt;br&gt;&lt;/p&gt;" style="ellipse;whiteSpace=wrap;html=1;" vertex="1" parent="1">
          <mxGeometry x="125" y="590" width="105" height="30" as="geometry" />
        </mxCell>
        <mxCell id="ANZ1kcfsG3lYuSEbbKu_-69" value="&lt;p class=&quot;MsoNormal&quot;&gt;&lt;span style=&quot;font-family: &amp;quot;Times New Roman&amp;quot;;&quot;&gt;Sửa rạp phim&lt;/span&gt;&lt;br&gt;&lt;/p&gt;" style="ellipse;whiteSpace=wrap;html=1;" vertex="1" parent="1">
          <mxGeometry x="130" y="640" width="105" height="30" as="geometry" />
        </mxCell>
        <mxCell id="ANZ1kcfsG3lYuSEbbKu_-70" value="&amp;lt;&amp;lt;extend&amp;gt;&amp;gt;" style="html=1;verticalAlign=bottom;labelBackgroundColor=none;endArrow=open;endFill=0;dashed=1;rounded=0;exitX=0;exitY=0.5;exitDx=0;exitDy=0;entryX=1;entryY=0;entryDx=0;entryDy=0;" edge="1" parent="1" source="ANZ1kcfsG3lYuSEbbKu_-67" target="ANZ1kcfsG3lYuSEbbKu_-33">
          <mxGeometry width="160" relative="1" as="geometry">
            <mxPoint x="140" y="570" as="sourcePoint" />
            <mxPoint x="49" y="535" as="targetPoint" />
          </mxGeometry>
        </mxCell>
        <mxCell id="ANZ1kcfsG3lYuSEbbKu_-71" value="&amp;lt;&amp;lt;extend&amp;gt;&amp;gt;" style="html=1;verticalAlign=bottom;labelBackgroundColor=none;endArrow=open;endFill=0;dashed=1;rounded=0;exitX=0;exitY=0.5;exitDx=0;exitDy=0;entryX=0.983;entryY=0.416;entryDx=0;entryDy=0;entryPerimeter=0;" edge="1" parent="1" source="ANZ1kcfsG3lYuSEbbKu_-68" target="ANZ1kcfsG3lYuSEbbKu_-33">
          <mxGeometry width="160" relative="1" as="geometry">
            <mxPoint x="125" y="632.5" as="sourcePoint" />
            <mxPoint x="60" y="610" as="targetPoint" />
          </mxGeometry>
        </mxCell>
        <mxCell id="ANZ1kcfsG3lYuSEbbKu_-72" value="&amp;lt;&amp;lt;extend&amp;gt;&amp;gt;" style="html=1;verticalAlign=bottom;labelBackgroundColor=none;endArrow=open;endFill=0;dashed=1;rounded=0;exitX=0;exitY=0.5;exitDx=0;exitDy=0;entryX=0.986;entryY=0.664;entryDx=0;entryDy=0;entryPerimeter=0;" edge="1" parent="1" source="ANZ1kcfsG3lYuSEbbKu_-69" target="ANZ1kcfsG3lYuSEbbKu_-33">
          <mxGeometry x="0.0063" width="160" relative="1" as="geometry">
            <mxPoint x="122.5" y="685" as="sourcePoint" />
            <mxPoint x="31.5" y="650" as="targetPoint" />
            <mxPoint as="offset" />
          </mxGeometry>
        </mxCell>
        <mxCell id="ANZ1kcfsG3lYuSEbbKu_-73" value="" style="html=1;verticalAlign=bottom;labelBackgroundColor=none;endArrow=block;endFill=1;rounded=0;exitX=1;exitY=0.3333333333333333;exitDx=0;exitDy=0;exitPerimeter=0;entryX=0;entryY=0.5;entryDx=0;entryDy=0;" edge="1" parent="1" source="ANZ1kcfsG3lYuSEbbKu_-2" target="ANZ1kcfsG3lYuSEbbKu_-35">
          <mxGeometry width="160" relative="1" as="geometry">
            <mxPoint x="-230" y="620" as="sourcePoint" />
            <mxPoint x="-130" y="815" as="targetPoint" />
          </mxGeometry>
        </mxCell>
        <mxCell id="ANZ1kcfsG3lYuSEbbKu_-74" value="" style="html=1;verticalAlign=bottom;labelBackgroundColor=none;endArrow=block;endFill=1;rounded=0;exitX=1;exitY=0.3333333333333333;exitDx=0;exitDy=0;exitPerimeter=0;entryX=0;entryY=0.5;entryDx=0;entryDy=0;" edge="1" parent="1" source="ANZ1kcfsG3lYuSEbbKu_-2" target="ANZ1kcfsG3lYuSEbbKu_-38">
          <mxGeometry width="160" relative="1" as="geometry">
            <mxPoint x="-200" y="550" as="sourcePoint" />
            <mxPoint x="-100" y="835" as="targetPoint" />
          </mxGeometry>
        </mxCell>
        <mxCell id="ANZ1kcfsG3lYuSEbbKu_-75" value="" style="html=1;verticalAlign=bottom;labelBackgroundColor=none;endArrow=block;endFill=1;rounded=0;exitX=1;exitY=0.3333333333333333;exitDx=0;exitDy=0;exitPerimeter=0;entryX=0;entryY=0.5;entryDx=0;entryDy=0;" edge="1" parent="1" source="ANZ1kcfsG3lYuSEbbKu_-2" target="ANZ1kcfsG3lYuSEbbKu_-39">
          <mxGeometry width="160" relative="1" as="geometry">
            <mxPoint x="-200" y="560" as="sourcePoint" />
            <mxPoint x="-100" y="935" as="targetPoint" />
          </mxGeometry>
        </mxCell>
        <mxCell id="ANZ1kcfsG3lYuSEbbKu_-76" value="&lt;p class=&quot;MsoNormal&quot;&gt;&lt;span style=&quot;mso-spacerun:&#39;yes&#39;;font-family:&#39;Times New Roman&#39;;font-size:13,0000pt;&quot;&gt;Thêm món ăn&lt;/span&gt;&lt;/p&gt;" style="ellipse;whiteSpace=wrap;html=1;" vertex="1" parent="1">
          <mxGeometry x="110" y="730" width="105" height="30" as="geometry" />
        </mxCell>
        <mxCell id="ANZ1kcfsG3lYuSEbbKu_-77" value="&lt;p class=&quot;MsoNormal&quot;&gt;&lt;span style=&quot;font-family: &amp;quot;Times New Roman&amp;quot;;&quot;&gt;Xóa món ăn&lt;/span&gt;&lt;br&gt;&lt;/p&gt;" style="ellipse;whiteSpace=wrap;html=1;" vertex="1" parent="1">
          <mxGeometry x="110" y="780" width="105" height="30" as="geometry" />
        </mxCell>
        <mxCell id="ANZ1kcfsG3lYuSEbbKu_-78" value="&lt;p class=&quot;MsoNormal&quot;&gt;&lt;span style=&quot;font-family: &amp;quot;Times New Roman&amp;quot;;&quot;&gt;Sửa món ăn&lt;/span&gt;&lt;br&gt;&lt;/p&gt;" style="ellipse;whiteSpace=wrap;html=1;" vertex="1" parent="1">
          <mxGeometry x="110" y="830" width="105" height="30" as="geometry" />
        </mxCell>
        <mxCell id="ANZ1kcfsG3lYuSEbbKu_-79" value="&amp;lt;&amp;lt;extend&amp;gt;&amp;gt;" style="html=1;verticalAlign=bottom;labelBackgroundColor=none;endArrow=open;endFill=0;dashed=1;rounded=0;exitX=0;exitY=0.5;exitDx=0;exitDy=0;entryX=1;entryY=0;entryDx=0;entryDy=0;" edge="1" parent="1" source="ANZ1kcfsG3lYuSEbbKu_-76" target="ANZ1kcfsG3lYuSEbbKu_-35">
          <mxGeometry x="0.0063" width="160" relative="1" as="geometry">
            <mxPoint x="100" y="770" as="sourcePoint" />
            <mxPoint x="28" y="741" as="targetPoint" />
            <mxPoint as="offset" />
          </mxGeometry>
        </mxCell>
        <mxCell id="ANZ1kcfsG3lYuSEbbKu_-80" value="&amp;lt;&amp;lt;extend&amp;gt;&amp;gt;" style="html=1;verticalAlign=bottom;labelBackgroundColor=none;endArrow=open;endFill=0;dashed=1;rounded=0;exitX=0;exitY=0.5;exitDx=0;exitDy=0;entryX=0.968;entryY=0.686;entryDx=0;entryDy=0;entryPerimeter=0;" edge="1" parent="1" source="ANZ1kcfsG3lYuSEbbKu_-78" target="ANZ1kcfsG3lYuSEbbKu_-35">
          <mxGeometry x="0.0063" width="160" relative="1" as="geometry">
            <mxPoint x="322" y="913.52" as="sourcePoint" />
            <mxPoint x="250" y="884.52" as="targetPoint" />
            <mxPoint as="offset" />
          </mxGeometry>
        </mxCell>
        <mxCell id="ANZ1kcfsG3lYuSEbbKu_-81" value="&amp;lt;&amp;lt;extend&amp;gt;&amp;gt;" style="html=1;verticalAlign=bottom;labelBackgroundColor=none;endArrow=open;endFill=0;dashed=1;rounded=0;exitX=0;exitY=0.5;exitDx=0;exitDy=0;entryX=1;entryY=0.5;entryDx=0;entryDy=0;" edge="1" parent="1" source="ANZ1kcfsG3lYuSEbbKu_-77" target="ANZ1kcfsG3lYuSEbbKu_-35">
          <mxGeometry x="0.0063" width="160" relative="1" as="geometry">
            <mxPoint x="352" y="798.52" as="sourcePoint" />
            <mxPoint x="280" y="769.52" as="targetPoint" />
            <mxPoint as="offset" />
          </mxGeometry>
        </mxCell>
        <mxCell id="ANZ1kcfsG3lYuSEbbKu_-82" value="Chỉnh sửa thông tin" style="ellipse;whiteSpace=wrap;html=1;" vertex="1" parent="1">
          <mxGeometry x="540" y="590" width="140" height="70" as="geometry" />
        </mxCell>
        <mxCell id="ANZ1kcfsG3lYuSEbbKu_-83" value="&amp;lt;&amp;lt;extend&amp;gt;&amp;gt;" style="html=1;verticalAlign=bottom;labelBackgroundColor=none;endArrow=open;endFill=0;dashed=1;rounded=0;exitX=1;exitY=0;exitDx=0;exitDy=0;entryX=0.028;entryY=0.591;entryDx=0;entryDy=0;entryPerimeter=0;" edge="1" parent="1" source="ANZ1kcfsG3lYuSEbbKu_-82" target="ANZ1kcfsG3lYuSEbbKu_-23">
          <mxGeometry width="160" relative="1" as="geometry">
            <mxPoint x="640" y="530" as="sourcePoint" />
            <mxPoint x="710" y="560" as="targetPoint" />
          </mxGeometry>
        </mxCell>
      </root>
    </mxGraphModel>
  </diagram>
</mxfile>
